<?xml version="1.0" encoding="iso-8859-1"?>
<!-- Generator: Adobe Illustrator 19.0.0, SVG Export Plug-In . SVG Version: 6.00 Build 0)  -->
<svg version="1.1" id="Layer_1" xmlns="http://www.w3.org/2000/svg" xmlns:xlink="http://www.w3.org/1999/xlink" x="0px" y="0px"
	 viewBox="0 0 512 512" style="enable-background:new 0 0 512 512;" xml:space="preserve">
<g>
	<g>
		<path d="M441.035,2.103h-33.643c-4.356,0-7.885,3.53-7.885,7.885v25.277L310.3,88.232c-4.256-6.29-11.456-10.433-19.606-10.433
			h-69.388c-8.534,0-16.026,4.543-20.187,11.338l-88.626-52.622V9.988c0-4.355-3.53-7.885-7.885-7.885H70.965
			c-4.355,0-7.885,3.53-7.885,7.885v269.142c0,4.355,3.53,7.885,7.885,7.885h33.643c4.355,0,7.885-3.53,7.885-7.885v-26.526
			l88.627-52.621c4.161,6.794,11.653,11.337,20.187,11.337h9.988v67.811c0,4.355,3.53,7.885,7.885,7.885h8.936v14.193
			c0,13.044,10.612,23.655,23.655,23.655h26.283c4.356,0,7.885-3.53,7.885-7.885s-3.529-7.885-7.885-7.885H271.77
			c-4.348,0-7.885-3.537-7.885-7.885v-14.193h8.936c4.356,0,7.885-3.53,7.885-7.885v-67.811h9.988
			c8.534,0,16.026-4.543,20.187-11.337l88.281,52.416c0.112,0.067,0.231,0.115,0.346,0.174v26.557c0,4.355,3.529,7.885,7.885,7.885
			h33.643c4.356,0,7.885-3.53,7.885-7.885V9.988C448.92,5.633,445.391,2.103,441.035,2.103z M96.723,271.244H78.85V17.873h17.873
			V271.244z M197.651,183.7l-85.158,50.563V54.853l84.812,50.357c0.112,0.067,0.231,0.115,0.346,0.175V183.7z M264.936,271.244
			h-17.873v-59.926h17.873V271.244z M399.507,234.264l-85.158-50.563V161.38c0-4.355-3.529-7.885-7.885-7.885
			c-4.356,0-7.885,3.53-7.885,7.885v26.283c0,4.348-3.537,7.885-7.885,7.885h-69.388c-4.348,0-7.885-3.537-7.885-7.885v-86.209
			c0-4.348,3.537-7.885,7.885-7.885h69.388c4.348,0,7.885,3.537,7.885,7.885v24.181c0,4.355,3.529,7.885,7.885,7.885
			c4.356,0,7.885-3.53,7.885-7.885v-21.466l85.158-50.563V234.264z M433.15,271.244h-17.873V17.873h17.873V271.244z"/>
	</g>
</g>
<g>
	<g>
		<path d="M504.115,136.674h-29.437c-4.356,0-7.885,3.53-7.885,7.885s3.529,7.885,7.885,7.885h29.437
			c4.356,0,7.885-3.53,7.885-7.885S508.471,136.674,504.115,136.674z"/>
	</g>
</g>
<g>
	<g>
		<path d="M505.967,68.02c-2.787-3.345-7.759-3.798-11.105-1.009L469.63,88.038c-5.476,4.563-1.989,13.942,5.052,13.942
			c1.779,0,3.57-0.599,5.044-1.827l25.232-21.027C508.304,76.337,508.755,71.366,505.967,68.02z"/>
	</g>
</g>
<g>
	<g>
		<path d="M504.958,209.992l-25.232-21.027c-3.344-2.786-8.316-2.336-11.105,1.009c-2.787,3.345-2.336,8.317,1.009,11.105
			l25.232,21.027c1.474,1.228,3.263,1.827,5.044,1.827c2.258,0,4.502-0.966,6.062-2.838
			C508.755,217.751,508.302,212.78,504.958,209.992z"/>
	</g>
</g>
<g>
	<g>
		<path d="M37.322,136.674H7.885c-4.355,0-7.885,3.53-7.885,7.885s3.53,7.885,7.885,7.885h29.437c4.355,0,7.885-3.53,7.885-7.885
			S41.677,136.674,37.322,136.674z"/>
	</g>
</g>
<g>
	<g>
		<path d="M42.37,88.037L17.138,67.01c-3.345-2.787-8.317-2.335-11.105,1.009c-2.788,3.345-2.336,8.317,1.009,11.105l25.232,21.027
			c1.475,1.229,3.264,1.828,5.044,1.828c2.259,0,4.502-0.966,6.062-2.838C46.168,95.797,45.715,90.825,42.37,88.037z"/>
	</g>
</g>
<g>
	<g>
		<path d="M43.38,189.975c-2.788-3.346-7.761-3.799-11.105-1.01L7.043,209.992c-3.345,2.788-3.797,7.76-1.009,11.105
			c1.559,1.871,3.803,2.838,6.062,2.838c1.78,0,3.57-0.599,5.043-1.827l25.232-21.027C45.716,198.292,46.168,193.32,43.38,189.975z"
			/>
	</g>
</g>
<g>
	<g>
		<path d="M408.444,309.092h-76.747c-4.356,0-7.885,3.53-7.885,7.885s3.529,7.885,7.885,7.885h76.747
			c4.348,0,7.885,3.537,7.885,7.885v14.719c0,4.348-3.537,7.885-7.885,7.885H271.77c-13.043,0-23.655,10.611-23.655,23.655v1.577
			h-6.834c-21.74,0-39.425,17.686-39.425,39.425v66.234c0,13.044,10.611,23.655,23.655,23.655h60.977
			c13.043,0,23.655-10.611,23.655-23.655v-66.234c0-21.74-17.686-39.425-39.425-39.425h-6.834v-1.577
			c0-4.348,3.537-7.885,7.885-7.885h136.674c13.043,0,23.655-10.611,23.655-23.655v-14.719
			C432.099,319.703,421.486,309.092,408.444,309.092z M217.626,420.008c0-13.044,10.611-23.655,23.655-23.655h6.834v30.489h-30.489
			V420.008z M294.374,486.242c0,4.348-3.537,7.885-7.885,7.885h-60.977c-4.348,0-7.885-3.537-7.885-7.885v-43.63h76.747V486.242z
			 M270.719,396.353c13.043,0,23.655,10.611,23.655,23.655v6.834h-30.489v-30.489H270.719z"/>
	</g>
</g>
<g>
</g>
<g>
</g>
<g>
</g>
<g>
</g>
<g>
</g>
<g>
</g>
<g>
</g>
<g>
</g>
<g>
</g>
<g>
</g>
<g>
</g>
<g>
</g>
<g>
</g>
<g>
</g>
<g>
</g>
</svg>
