<?xml version="1.0" encoding="iso-8859-1"?>
<!-- Generator: Adobe Illustrator 19.0.0, SVG Export Plug-In . SVG Version: 6.00 Build 0)  -->
<svg version="1.1" id="Capa_1" xmlns="http://www.w3.org/2000/svg" xmlns:xlink="http://www.w3.org/1999/xlink" x="0px" y="0px"
	 viewBox="0 0 60.025 60.025" style="enable-background:new 0 0 60.025 60.025;" xml:space="preserve">
<g>
	<g>
		<rect x="28.012" y="9.025" width="4" height="2"/>
		<rect x="25.012" y="13.025" width="10" height="2"/>
		<rect x="11.012" y="27.025" width="2" height="2"/>
		<rect x="47.012" y="27.025" width="2" height="2"/>
		<rect x="47.012" y="31.025" width="2" height="2"/>
		<rect x="47.012" y="35.025" width="2" height="2"/>
		<rect x="47.012" y="39.025" width="2" height="2"/>
		<rect x="47.012" y="43.025" width="2" height="2"/>
		<rect x="11.012" y="31.025" width="2" height="2"/>
		<rect x="11.012" y="35.025" width="2" height="2"/>
		<rect x="11.012" y="39.025" width="2" height="2"/>
		<rect x="11.012" y="43.025" width="2" height="2"/>
		<path d="M59.012,33.025h-6v-8h3c0.6,0,1-0.4,1-1v-3.7c0-0.3-0.1-0.6-0.4-0.8l-26-19.3c-0.4-0.3-0.8-0.3-1.2,0l-25.3,18.8h-0.1v0.1
			l-0.6,0.4c-0.3,0.2-0.4,0.5-0.4,0.8v3.7c0,0.6,0.4,1,1,1h3v8h-6c-0.6,0-1,0.4-1,1v19h2v-13h5v13h2v-4h6v3c0,0.4,0.2,0.7,0.6,0.9
			l14,7c0.1,0.1,0.2,0.1,0.4,0.1s0.3,0,0.4-0.1l14-7c0.4-0.2,0.6-0.5,0.6-0.9v-3h6v4h2v-13h5v13h2v-19
			C60.012,33.425,59.612,33.025,59.012,33.025z M5.012,21.025h40v-2h-37.6l22.6-16.8l25,18.6v2.2h-3h-44h-3V21.025z M2.012,38.025
			v-3h5v3H2.012z M43.012,51.425l-13,6.5l-13-6.5v-22.4h26V51.425z M45.012,47.025v-19c0-0.6-0.4-1-1-1h-28c-0.6,0-1,0.4-1,1v19h-6
			v-22h42v22H45.012z M53.012,38.025v-3h5v3H53.012z"/>
		<path d="M30.012,52.025c4.4,0,8-3.6,8-8s-3.6-8-8-8s-8,3.6-8,8S25.612,52.025,30.012,52.025z M30.012,38.025c3.3,0,6,2.7,6,6
			s-2.7,6-6,6s-6-2.7-6-6S26.713,38.025,30.012,38.025z"/>
		<path d="M29.012,47.025c0.3,0,0.5-0.1,0.7-0.3l4-4l-1.4-1.4l-3.3,3.3l-1.3-1.3l-1.4,1.4l2,2
			C28.512,46.925,28.713,47.025,29.012,47.025z"/>
		<rect x="19.012" y="31.025" width="2" height="2"/>
		<rect x="23.012" y="31.025" width="2" height="2"/>
		<rect x="27.012" y="31.025" width="2" height="2"/>
		<rect x="31.012" y="31.025" width="2" height="2"/>
		<rect x="35.012" y="31.025" width="2" height="2"/>
		<rect x="39.012" y="31.025" width="2" height="2"/>
	</g>
</g>
<g>
</g>
<g>
</g>
<g>
</g>
<g>
</g>
<g>
</g>
<g>
</g>
<g>
</g>
<g>
</g>
<g>
</g>
<g>
</g>
<g>
</g>
<g>
</g>
<g>
</g>
<g>
</g>
<g>
</g>
</svg>
